<?xml version="1.0" standalone="no"?>
<!DOCTYPE svg PUBLIC "-//W3C//DTD SVG 20010904//EN"
 "http://www.w3.org/TR/2001/REC-SVG-20010904/DTD/svg10.dtd">
<svg version="1.0" xmlns="http://www.w3.org/2000/svg"
 width="256.000000pt" height="256.000000pt" viewBox="0 0 256.000000 256.000000"
 preserveAspectRatio="xMidYMid meet">
<metadata>
Created by potrace 1.11, written by Peter Selinger 2001-2013
</metadata>
<g transform="translate(0.000000,256.000000) scale(0.100000,-0.100000)"
fill="#000000" stroke="none">
<path d="M457 2135 c-1 -1 -40 -5 -87 -8 -77 -6 -223 -37 -237 -51 -6 -6 -8
-165 -2 -170 2 -2 38 4 79 15 172 43 374 44 496 3 212 -71 333 -231 360 -476
l6 -53 -419 0 -418 0 -1 -90 -1 -90 420 1 419 0 -5 -75 c-15 -236 -122 -401
-307 -474 -152 -59 -364 -65 -564 -16 -43 10 -82 19 -86 19 -5 0 -7 -131 -2
-166 2 -11 40 -23 142 -45 89 -18 343 -21 435 -4 181 33 289 87 395 194 56 57
86 98 118 161 l42 85 -1 -210 -2 -210 102 -3 101 -3 0 402 0 401 403 -401 402
-401 113 0 c102 0 112 2 112 18 0 11 -161 178 -394 409 -216 215 -391 395
-387 401 5 9 182 197 341 363 30 32 102 108 160 170 58 61 137 146 177 187 39
42 70 79 68 82 -2 3 -57 5 -121 4 l-118 -1 -54 -59 c-30 -33 -109 -117 -177
-189 -67 -71 -138 -146 -156 -166 -19 -20 -86 -92 -150 -160 -64 -68 -138
-148 -165 -177 l-49 -53 -5 403 -5 402 -88 1 c-49 0 -93 -3 -99 -6 -6 -4 -10
-87 -9 -230 l0 -224 -23 58 c-52 125 -142 239 -246 307 -107 71 -265 116 -428
123 -45 2 -83 3 -85 2z"/>
</g>
</svg>
